<?xml version="1.0" encoding="UTF-8"?>
<svg xmlns="http://www.w3.org/2000/svg" xmlns:xlink="http://www.w3.org/1999/xlink" width="35px" height="35px" viewBox="0 0 35 35" version="1.1">
<g id="surface1">
<path style=" stroke:none;fill-rule:evenodd;fill:rgb(45.882353%,54.901961%,63.921569%);fill-opacity:1;" d="M 17.796875 0.726562 C 9.566406 0.722656 2.546875 6.6875 1.226562 14.808594 C -0.09375 22.9375 4.6875 30.820312 12.496094 33.414062 C 13.339844 33.566406 13.640625 33.042969 13.640625 32.597656 C 13.640625 32.15625 13.640625 31.148438 13.640625 29.746094 C 8.953125 30.765625 7.96875 27.496094 7.96875 27.496094 C 7.65625 26.480469 6.996094 25.605469 6.101562 25.035156 C 4.589844 24.003906 6.230469 24.003906 6.230469 24.003906 C 7.304688 24.15625 8.246094 24.789062 8.789062 25.734375 C 9.253906 26.566406 10.023438 27.183594 10.941406 27.449219 C 11.855469 27.710938 12.835938 27.601562 13.671875 27.136719 C 13.738281 26.289062 14.097656 25.488281 14.699219 24.886719 C 10.976562 24.46875 7.066406 23.027344 7.066406 16.65625 C 7.039062 14.988281 7.652344 13.382812 8.78125 12.15625 C 8.273438 10.707031 8.335938 9.121094 8.945312 7.722656 C 8.945312 7.722656 10.351562 7.261719 13.558594 9.4375 C 16.308594 8.683594 19.210938 8.683594 21.957031 9.4375 C 25.160156 7.261719 26.5625 7.722656 26.5625 7.722656 C 27.175781 9.109375 27.25 10.679688 26.765625 12.125 C 27.894531 13.347656 28.507812 14.960938 28.480469 16.621094 C 28.480469 23.066406 24.566406 24.476562 20.824219 24.859375 C 21.632812 25.671875 22.054688 26.800781 21.96875 27.949219 C 21.96875 30.191406 21.96875 32.003906 21.96875 32.550781 C 21.96875 33.097656 22.269531 33.511719 23.121094 33.347656 C 30.839844 30.691406 35.519531 22.855469 34.207031 14.796875 C 32.890625 6.742188 25.964844 0.796875 17.796875 0.726562 Z M 17.796875 0.726562 "/>
</g>
</svg>
