<?xml version="1.0" encoding="UTF-8"?>
<svg xmlns="http://www.w3.org/2000/svg" xmlns:xlink="http://www.w3.org/1999/xlink" width="35px" height="35px" viewBox="0 0 35 35" version="1.1">
<g id="surface1">
<path style=" stroke:none;fill-rule:evenodd;fill:rgb(45.882353%,54.901961%,63.921569%);fill-opacity:1;" d="M 17.492188 0.0117188 C 12.742188 0.0117188 12.148438 0.0351562 10.28125 0.117188 C 8.417969 0.203125 7.148438 0.5 6.035156 0.929688 C 4.882812 1.378906 3.910156 1.976562 2.9375 2.945312 C 1.960938 3.921875 1.363281 4.898438 0.917969 6.046875 C 0.484375 7.15625 0.191406 8.429688 0.105469 10.292969 C 0.0195312 12.160156 0 12.753906 0 17.507812 C 0 22.257812 0.0195312 22.851562 0.105469 24.71875 C 0.191406 26.582031 0.484375 27.851562 0.917969 28.964844 C 1.363281 30.117188 1.960938 31.09375 2.9375 32.0625 C 3.910156 33.039062 4.882812 33.636719 6.035156 34.082031 C 7.148438 34.515625 8.417969 34.8125 10.28125 34.898438 C 12.148438 34.980469 12.742188 35 17.492188 35 C 22.246094 35 22.839844 34.980469 24.707031 34.898438 C 26.570312 34.8125 27.84375 34.515625 28.953125 34.082031 C 30.105469 33.636719 31.078125 33.039062 32.054688 32.0625 C 33.023438 31.09375 33.625 30.117188 34.070312 28.964844 C 34.5 27.851562 34.796875 26.582031 34.882812 24.71875 C 34.96875 22.851562 34.988281 22.257812 34.988281 17.507812 C 34.988281 12.753906 34.96875 12.160156 34.882812 10.292969 C 34.796875 8.429688 34.5 7.15625 34.070312 6.046875 C 33.625 4.898438 33.023438 3.921875 32.054688 2.945312 C 31.078125 1.976562 30.105469 1.378906 28.953125 0.929688 C 27.84375 0.5 26.570312 0.203125 24.707031 0.117188 C 22.839844 0.0351562 22.246094 0.0117188 17.492188 0.0117188 Z M 17.492188 3.164062 C 22.164062 3.164062 22.71875 3.179688 24.5625 3.265625 C 26.269531 3.34375 27.195312 3.628906 27.8125 3.867188 C 28.628906 4.1875 29.210938 4.5625 29.824219 5.175781 C 30.4375 5.789062 30.8125 6.371094 31.132812 7.1875 C 31.371094 7.804688 31.65625 8.730469 31.734375 10.4375 C 31.820312 12.28125 31.835938 12.835938 31.835938 17.507812 C 31.835938 22.175781 31.820312 22.730469 31.734375 24.574219 C 31.65625 26.28125 31.371094 27.207031 31.132812 27.824219 C 30.8125 28.640625 30.4375 29.222656 29.824219 29.835938 C 29.210938 30.449219 28.628906 30.828125 27.8125 31.144531 C 27.195312 31.382812 26.269531 31.671875 24.5625 31.746094 C 22.71875 31.832031 22.164062 31.847656 17.492188 31.847656 C 12.824219 31.847656 12.269531 31.832031 10.425781 31.746094 C 8.71875 31.671875 7.792969 31.382812 7.175781 31.144531 C 6.359375 30.828125 5.777344 30.449219 5.164062 29.835938 C 4.554688 29.222656 4.171875 28.640625 3.855469 27.824219 C 3.617188 27.207031 3.332031 26.28125 3.253906 24.574219 C 3.167969 22.730469 3.152344 22.175781 3.152344 17.507812 C 3.152344 12.835938 3.167969 12.28125 3.253906 10.4375 C 3.332031 8.730469 3.617188 7.804688 3.855469 7.1875 C 4.171875 6.371094 4.554688 5.789062 5.164062 5.175781 C 5.777344 4.5625 6.359375 4.1875 7.175781 3.867188 C 7.792969 3.628906 8.71875 3.34375 10.425781 3.265625 C 12.269531 3.179688 12.824219 3.164062 17.492188 3.164062 Z M 17.492188 23.339844 C 14.273438 23.339844 11.660156 20.726562 11.660156 17.507812 C 11.660156 14.285156 14.273438 11.671875 17.492188 11.671875 C 20.714844 11.671875 23.328125 14.285156 23.328125 17.507812 C 23.328125 20.726562 20.714844 23.339844 17.492188 23.339844 Z M 17.492188 8.523438 C 12.53125 8.523438 8.511719 12.542969 8.511719 17.507812 C 8.511719 22.46875 12.53125 26.488281 17.492188 26.488281 C 22.457031 26.488281 26.476562 22.46875 26.476562 17.507812 C 26.476562 12.542969 22.457031 8.523438 17.492188 8.523438 Z M 26.832031 10.265625 C 27.992188 10.265625 28.933594 9.328125 28.933594 8.167969 C 28.933594 7.007812 27.992188 6.066406 26.832031 6.066406 C 25.671875 6.066406 24.730469 7.007812 24.730469 8.167969 C 24.730469 9.328125 25.671875 10.265625 26.832031 10.265625 Z M 26.832031 10.265625 "/>
</g>
</svg>
