<?xml version="1.0" encoding="UTF-8"?>
<svg xmlns="http://www.w3.org/2000/svg" xmlns:xlink="http://www.w3.org/1999/xlink" width="35px" height="35px" viewBox="0 0 35 35" version="1.1">
<g id="surface1">
<path style=" stroke:none;fill-rule:evenodd;fill:rgb(45.882353%,54.901961%,63.921569%);fill-opacity:1;" d="M 32.5 0 L 2.492188 0 C 1.117188 0 0 1.132812 0 2.523438 L 0 32.476562 C 0 33.867188 1.117188 35 2.492188 35 L 32.5 35 C 33.875 35 35 33.867188 35 32.476562 L 35 2.523438 C 35 1.132812 33.875 0 32.5 0 Z M 10.578125 30 L 5.390625 30 L 5.390625 13.296875 L 10.585938 13.296875 L 10.585938 30 Z M 7.984375 11.015625 C 6.320312 11.015625 4.976562 9.664062 4.976562 8.007812 C 4.976562 6.351562 6.320312 5 7.984375 5 C 9.640625 5 10.992188 6.351562 10.992188 8.007812 C 10.992188 9.671875 9.648438 11.015625 7.984375 11.015625 Z M 30.023438 30 L 24.835938 30 L 24.835938 21.875 C 24.835938 19.9375 24.796875 17.445312 22.140625 17.445312 C 19.4375 17.445312 19.023438 19.554688 19.023438 21.734375 L 19.023438 30 L 13.835938 30 L 13.835938 13.296875 L 18.8125 13.296875 L 18.8125 15.578125 L 18.882812 15.578125 C 19.578125 14.265625 21.273438 12.882812 23.796875 12.882812 C 29.046875 12.882812 30.023438 16.34375 30.023438 20.84375 Z M 30.023438 30 "/>
</g>
</svg>
