<?xml version="1.0" encoding="UTF-8"?>
<svg xmlns="http://www.w3.org/2000/svg" xmlns:xlink="http://www.w3.org/1999/xlink" width="35px" height="35px" viewBox="0 0 35 35" version="1.1">
<g id="surface1">
<path style=" stroke:none;fill-rule:evenodd;fill:rgb(45.882353%,54.901961%,63.921569%);fill-opacity:1;" d="M 29.914062 5.085938 C 26.671875 1.820312 22.253906 -0.0117188 17.652344 0 C 8.09375 0 0.316406 7.777344 0.3125 17.335938 C 0.308594 20.378906 1.105469 23.371094 2.625 26.003906 L 0.167969 34.988281 L 9.359375 32.578125 C 11.898438 33.964844 14.75 34.691406 17.644531 34.691406 L 17.652344 34.691406 C 27.207031 34.691406 34.984375 26.910156 34.988281 17.351562 C 35.003906 12.75 33.175781 8.332031 29.914062 5.085938 Z M 17.652344 31.757812 L 17.644531 31.757812 C 15.0625 31.757812 12.53125 31.066406 10.308594 29.75 L 9.78125 29.441406 L 4.328125 30.871094 L 5.785156 25.550781 L 5.441406 25.003906 C 4 22.707031 3.238281 20.050781 3.242188 17.339844 C 3.242188 9.394531 9.707031 2.929688 17.65625 2.929688 C 21.480469 2.929688 25.144531 4.449219 27.84375 7.15625 C 30.546875 9.859375 32.0625 13.527344 32.0625 17.351562 C 32.058594 25.296875 25.59375 31.757812 17.652344 31.757812 Z M 25.554688 20.964844 C 25.121094 20.746094 22.992188 19.699219 22.59375 19.550781 C 22.195312 19.402344 21.910156 19.335938 21.621094 19.769531 C 21.332031 20.203125 20.5 21.175781 20.25 21.464844 C 19.996094 21.753906 19.742188 21.792969 19.308594 21.574219 C 18.875 21.359375 17.480469 20.898438 15.824219 19.425781 C 14.539062 18.277344 13.664062 16.859375 13.414062 16.421875 C 13.164062 15.988281 13.386719 15.757812 13.605469 15.539062 C 13.800781 15.34375 14.039062 15.035156 14.253906 14.78125 C 14.46875 14.527344 14.542969 14.347656 14.6875 14.058594 C 14.832031 13.769531 14.761719 13.515625 14.652344 13.296875 C 14.542969 13.082031 13.675781 10.949219 13.316406 10.082031 C 12.964844 9.238281 12.609375 9.351562 12.339844 9.332031 C 12.09375 9.320312 11.800781 9.320312 11.511719 9.320312 C 11.066406 9.332031 10.648438 9.527344 10.355469 9.859375 C 9.957031 10.292969 8.839844 11.34375 8.839844 13.476562 C 8.839844 15.605469 10.390625 17.667969 10.605469 17.957031 C 10.824219 18.246094 13.664062 22.621094 18.007812 24.5 C 18.8125 24.847656 19.636719 25.152344 20.476562 25.414062 C 21.515625 25.746094 22.457031 25.695312 23.203125 25.585938 C 24.035156 25.460938 25.769531 24.535156 26.128906 23.523438 C 26.492188 22.511719 26.492188 21.644531 26.378906 21.464844 C 26.265625 21.285156 25.988281 21.183594 25.554688 20.96875 Z M 25.554688 20.964844 "/>
</g>
</svg>
